<svg xmlns="http://www.w3.org/2000/svg" viewBox="0 0 1716.87 1968.76"><title>silo</title><path d="M524.92,174.07c1-1.38,77.85-103.48,52.66-116.07-25.36-12.68-121,28.07-121,28.07l-41-69S351.27-3.43,318.11,3.39s-83.89,44.77-91.69,46.28-58.53,79.54-60.48,93.2,7.8,46.82,13.65,54.62S203,243.65,203,243.65L165.68,309s-37.32,48.49,0,66,60.74,0,60.74,0l13.65,23.41-11.7,28.32-5.86,12.5h17.56l-11.7,11.86H193.25l-11.71,21.46-3.9,9.75H156.18l-15.61,25.36S89.85,529.15,78.14,535s-42.92,27.31-48.77,31.21C25.19,569,12,577.78,2,584.69" style="fill:none;stroke:#000;stroke-linecap:round;stroke-miterlimit:10;stroke-width:4px"/><path d="M675.13,868.61c5.85-11.7,0-103.4,0-103.4s-.65-50.72,2.6-70.23,0-31.21,0-31.21l18.86-23.41,13.66-56.58,4.55-31.22-8.46-18.21s-8.58-13.64-15.17-23.41c-8.26-12.23-6.29-8.45-8.89-9.75S668,488.83,664.07,488.83s-2.6-6.06-4.55-8.88S651.72,468,649.12,468s-9.11-1.95-9.11-1.95l-7.8-26.81s2.1-1.51-11.71-7.65c-8.39-3.74-27.31,9.45-33.16,7.65l-5.86-1.8s7.81-29.26,1.95-39a68.63,68.63,0,0,1-7.8-19.51l6-7.37s6.34-6.07,7.2-7.8.44-5.64.87-7.1-2.72-4.61-2.72-4.61l-5.35-1.35s-1.9-3,0-4.6-.6-5.32,0-6.62-5.8-3.47-7.1-5.64,2.6-10.84,2.6-10.84,7.8-.86,10.4-3,10.84-6.5,10.84-9.1,3.47-5.21,2.17-10.84-10.84-11.71-10.84-11.71S572.38,276.18,571.51,274s-17.77-19.5-18.21-21.24-8.23-8.24-7.8-11.27,3-20.38,1.73-20.81S536,199.88,536,199.88l-10.84-14.31-.21-11.49" style="fill:none;stroke:#000;stroke-linecap:round;stroke-miterlimit:10;stroke-width:4px"/><path d="M521.22,249.74s-5.63,3.9-4.77,6.5,2.34,6.94,2.34,6.94-1,2.6-6.24,2.6S490,263.61,490,263.61l9.53-8.24,11.28-5.63Z" style="fill:none;stroke:#000;stroke-linecap:round;stroke-miterlimit:10;stroke-width:4px"/><path d="M549,299.59s-12.14,4.77-7.81,13.44S549,323.44,549,323.44s4.77.87,6.93,0" style="fill:none;stroke:#000;stroke-linecap:round;stroke-miterlimit:10;stroke-width:4px"/><path d="M347.81,317.8c0-1.3-.44-32.95-23-33.38s-24.71,6.94-24.71,6.94-7.37,12.95-4.34,20.35,8.24,16.06,12.14,17.8,14,3.47,13.51,6.5,2.53,12.14,7.3,16,13,3.16,14.31,4.61" style="fill:none;stroke:#000;stroke-linecap:round;stroke-miterlimit:10;stroke-width:4px"/><path d="M378.59,354.22s4.77,18.64-6.51,22.11-23.84.43-26.88-2.17S318.33,356,318.33,354.22s-6.94-11.71-9.54-13-20-29.5-20-29.5-1.73-27.29,9.11-29.89,23-4.34,26-3,11.71,0,19.94,5.62c5.1,3.5,8,9.82,9.54,14.12a38.52,38.52,0,0,1,1.3,4.54" style="fill:none;stroke:#000;stroke-linecap:round;stroke-miterlimit:10;stroke-width:4px"/><path d="M339.14,377.89c-6.94,3.21-25.58-.69-28.62,3.64s-3.9,15.18-6.07,19.51-11.7,18.21-18.21,18.64-9.1,6.51-16.9,10-19.08,6-25.15,7.8" style="fill:none;stroke:#000;stroke-linecap:round;stroke-miterlimit:10;stroke-width:4px"/><path d="M524.92,174.07h0l-21-29.69" style="fill:none;stroke:#000;stroke-linecap:round;stroke-miterlimit:10;stroke-width:4px"/><path d="M226.42,375s-21.25-5.95-20.38-18.37,26.88-49.26,26.88-49.26,30.58-41.19,55.82-57.66S413.27,174.3,413.27,174.3s37.72-46,92.34-32.08" style="fill:none;stroke:#000;stroke-linecap:round;stroke-miterlimit:10;stroke-width:4px"/><path d="M456.62,86.07s-146.53,67.42-176.45,93S203,243.65,203,243.65" style="fill:none;stroke:#000;stroke-linecap:round;stroke-miterlimit:10;stroke-width:4px"/><path d="M226.42,535s54.42,115.75,62.32,175.58S316.16,951.2,316.16,951.2" style="fill:none;stroke:#000;stroke-linecap:round;stroke-miterlimit:10;stroke-width:4px"/><path d="M203,951.2s4.76-88.3,14.28-157c5.41-39.06,12.36-71.79,20.84-78.39" style="fill:none;stroke:#000;stroke-linecap:round;stroke-miterlimit:10;stroke-width:4px"/><path d="M145.78,618.24c-24.72-29.91-72.84-59.82-85.84-55.92C47.13,566.16,3.4,584.13,2,584.69H2" style="fill:none;stroke:#000;stroke-linecap:round;stroke-miterlimit:10;stroke-width:4px"/><path d="M563.12,493.06s-16.28,17.56-15,25.36-7.12,19.51-3.44,22.44,6.18,8.78,11.27,7.8-3.14,18.54,0,23.41-8.68,9.76,9.92,41.95,15.66,59.5,15.66,59.5l-5.85,5.85-2,43.9-7.86,45.85-25.59-11.71s1.3-9.1-4.08-14.31-14.17-13-14.17-13l-10.73-27.31s-7.8-15.61-14.63-26.34-3.9-24.39-7.81-30.24-19.5-31.22-20.48-35.12S449.8,577,446.87,577s-3.9-8.78-3.9-8.78l7.8,2.93S463.45,548.66,443,535s-17.56-21.46-17.56-21.46l-7.8-1" style="fill:none;stroke:#000;stroke-linecap:round;stroke-miterlimit:10;stroke-width:4px"/><path d="M549.45,473.24c-4.54,4.79-7.14,12.85-1.38,14.94,3.51,1.28,6.82,2.37,9.43,3.19" style="fill:none;stroke:#000;stroke-linecap:round;stroke-miterlimit:10;stroke-width:4px"/><path d="M559.1,453.58a2.33,2.33,0,0,0,.27,1.88,7.06,7.06,0,0,1,1,2" style="fill:none;stroke:#000;stroke-linecap:round;stroke-miterlimit:10;stroke-width:4px"/><path d="M581.48,437.46a13.5,13.5,0,0,0-6.56-1.51" style="fill:none;stroke:#000;stroke-linecap:round;stroke-miterlimit:10;stroke-width:4px"/><path d="M562,455.65l-1.83-.14-.75-.05c-13.52-.94-45.17-2.1-64.7,5.41-25.36,9.75-38.05,19.71-41,23.51s-36.09,14.53-36.09,21.36c0,1.18-.75,3.1-2,5.54-6,11.75-23.71,35.49-25.32,45.19-2,11.7,6.8,16.58,6.8,16.58l20.52,29.15,7.8,29.38s-1,24.38-13.66,27.31S378.2,654,371.08,647.18c-5.95-5.7-13.06-17.53-15.24-21.27l-.66-1.16V602.2s-1.95-18.42,0-22.32-6.72-33.17-16-39-11.47-19.51-17.71-21.46-45.27-39-50.14-41.95-42.92-26.33-42.92-26.33" style="fill:none;stroke:#000;stroke-linecap:round;stroke-miterlimit:10;stroke-width:4px"/><path d="M177.64,482.33c15.61,1.95,11.71-15.61,50.73,22.44s41,52,51.7,57.2,15.6-.34,23.41,0,35.66-21.11,35.66-21.11" style="fill:none;stroke:#000;stroke-linecap:round;stroke-miterlimit:10;stroke-width:4px"/><path d="M355.84,625.91c-4.65,13.17-8,38.81,6.16,89.88,22.44,80.64,22.49,156.73,22.47,161.6s-7.24,89.37-13.39,89.37" style="fill:none;stroke:#000;stroke-linecap:round;stroke-miterlimit:10;stroke-width:4px"/><path d="M410.78,581.83c3.9,2.92,35.11,28.29,39,43.89S480,730.1,480,738.88s24.38,104.37,25.36,144.37,12.68,83.51,12.68,83.51" style="fill:none;stroke:#000;stroke-linecap:round;stroke-miterlimit:10;stroke-width:4px"/><path d="M583.65,314.77s-13.87-1.74-24.28,3.47" style="fill:none;stroke:#000;stroke-linecap:round;stroke-miterlimit:10;stroke-width:4px"/><path d="M536.15,228.49s.68,6.94-4.09,9.11-28,3.86-32.43,6.05-10.49,4.79-11.79,6.09,9.1-12.58,15.61-15.61S536.15,228.49,536.15,228.49Z" style="fill:none;stroke:#000;stroke-linecap:round;stroke-miterlimit:10;stroke-width:4px"/><path d="M508.22,257.32s1.73,2.39,0,3.69" style="fill:none;stroke:#000;stroke-linecap:round;stroke-miterlimit:10;stroke-width:4px"/><path d="M405.71,309.87c-4.4-2.71-13.6-7.16-16.28-5.07-3.91,3-8.84-10.84-9.84-10s-6.64-7.37-10.54.44-14.23,6.73-15.61,3.26,3-11.1,0-14.12-5.75-8-12.57-6.06" style="fill:none;stroke:#000;stroke-linecap:round;stroke-miterlimit:10;stroke-width:4px"/><path d="M405.71,309.87a3,3,0,0,0,1.92,1.84C408.72,312,407.72,311.11,405.71,309.87Z" style="fill:none;stroke:#000;stroke-linecap:round;stroke-miterlimit:10;stroke-width:4px"/><path d="M444.2,256.75c-1.61-2.35-7.24-10.4-6.22-13.1,1.3-3.45-5.63-7.35-5.63-7.35s-4.34,9.1-2.17,11.7-2.17,9.53-3.9,9.32-11.28,2.39-8.67,5.86,8.67,13.44,5.63,18.2-11.27,9.54-12.14,13,1.3,5.2,4.77,7.8-11.7-6.5-11.27-2.6c.32,2.89-.07,7.64,1.11,10.28" style="fill:none;stroke:#000;stroke-linecap:round;stroke-miterlimit:10;stroke-width:4px"/><path d="M444.2,256.75a1.39,1.39,0,0,0,.29.57C444.87,257.74,444.71,257.5,444.2,256.75Z" style="fill:none;stroke:#000;stroke-linecap:round;stroke-miterlimit:10;stroke-width:4px"/><path d="M422.81,180.8c2.17,6.51,16.47,20.81,15.17,24.72s-6.07,8.67-4.77,11.27.6,12.14,4.86,11.7,9.45,5.72,9,10.67c-.41,4.58-3.79,14.59-2.89,17.59" style="fill:none;stroke:#000;stroke-linecap:round;stroke-miterlimit:10;stroke-width:4px"/><path d="M640,466.07l-22.76-11.7a202.51,202.51,0,0,0-20.81,11.7c-5.9,3.74-13.79,10.07-20.39,15.66-7.22,6.11-12.93,11.33-12.93,11.33" style="fill:none;stroke:#000;stroke-linecap:round;stroke-miterlimit:10;stroke-width:4px"/><path d="M555.9,548.66s13.44-3.25,15.61-9.1,8-18.21,15.49-22.11,29.6-31,34.8-33.07,13.66-4.46,23.41,0,.65,4.45,9.76,4.45h9.1" style="fill:none;stroke:#000;stroke-linecap:round;stroke-miterlimit:10;stroke-width:4px"/><path d="M685.53,522.08s-28-11.14-33.16-11.14S610.53,530.45,610,532.4s-12.25,15-12.25,16.26S586.67,566.22,587,569.47s4.89,13.66,8.14,12.36,11.49-.65,14.85-3.25,13.11-14.36,13.11-14.36l13.16-8.9,11.6-4.44,5.81-2.22,10.4,3.9,9.11,2.76" style="fill:none;stroke:#000;stroke-linecap:round;stroke-miterlimit:10;stroke-width:4px"/><path d="M571.51,539.56v9.1s-9.19,10.31-8.39,15.56-.92,9.15,4.17,10.45,13.23,3.91,14.36,2.61a60.6,60.6,0,0,1,5.34-4.56" style="fill:none;stroke:#000;stroke-linecap:round;stroke-miterlimit:10;stroke-width:4px"/><path d="M685.53,581.94s-31.86-10.21-36.41-26.62c-.48-1.74-.9-3.2-1.26-4.44" style="fill:none;stroke:#000;stroke-linecap:round;stroke-miterlimit:10;stroke-width:4px"/><path d="M590.74,440l-2.08.84L578.27,445a57.27,57.27,0,0,0-8.36,3.91,36,36,0,0,0-8,6.7c-.56.6-1.09,1.22-1.62,1.85-2.58,3.09-4.89,6.47-7.15,9.8-1.31,1.94-2.62,3.89-3.73,5.94" style="fill:none;stroke:#000;stroke-linecap:round;stroke-miterlimit:10;stroke-width:4px"/><path d="M557.5,491.37c6.3-3,12.5-6.19,18.55-9.64" style="fill:none;stroke:#000;stroke-linecap:round;stroke-miterlimit:10;stroke-width:4px"/><path d="M560.22,485.28a33.53,33.53,0,0,0,5.93-6.33,11.35,11.35,0,0,0,2-8.24c-.57-2.84-2.91-5.42-5.8-5.65" style="fill:none;stroke:#000;stroke-linecap:round;stroke-miterlimit:10;stroke-width:4px"/><path d="M560.13,542.56c1.15.08,1.67-1.38,1.83-2.52.51-3.79,1-7.81-.56-11.31a10.6,10.6,0,0,0-8.49-6.12" style="fill:none;stroke:#000;stroke-linecap:round;stroke-miterlimit:10;stroke-width:4px"/><path d="M578.74,571.08a27.75,27.75,0,0,0,.8-11.5,11.1,11.1,0,0,0-1.74-5,5.07,5.07,0,0,0-4.54-2.21" style="fill:none;stroke:#000;stroke-linecap:round;stroke-miterlimit:10;stroke-width:4px"/><path d="M597.53,576.19A13.15,13.15,0,0,0,596,559" style="fill:none;stroke:#000;stroke-linecap:round;stroke-miterlimit:10;stroke-width:4px"/><path d="M588.57,440.61c-4.18-2-8.45-4-13-4.59l-.61-.07h0c-4.4-.42-9.12.67-12.16,3.86a15,15,0,0,0-2.94,4.75c-1.16,2.83-1.66,6.23-.67,9h0a7.15,7.15,0,0,0,1,1.93,5.2,5.2,0,0,0,.52.64" style="fill:none;stroke:#000;stroke-linecap:round;stroke-miterlimit:10;stroke-width:4px"/><path d="M581.4,350.38a24.8,24.8,0,0,0-4.4,2.35l-9.36,5.84a42.18,42.18,0,0,1-21.93,8" style="fill:none;stroke:#000;stroke-linecap:round;stroke-miterlimit:10;stroke-width:4px"/><path d="M526.11,399.59a7,7,0,0,0,2.94-3.2,3.15,3.15,0,0,0-4.65,3.25,1.77,1.77,0,0,0,1.86.18" style="fill:none;stroke:#000;stroke-linecap:round;stroke-miterlimit:10;stroke-width:4px"/></svg>