<svg xmlns="http://www.w3.org/2000/svg" viewBox="0 0 83.23 143.21"><title>Asset 10</title><path d="M8.16,141.17a1.36,1.36,0,0,1-.61,1.22,6.63,6.63,0,0,1-3.67.82c-2.59,0-3.88-.54-3.88-1.63a3.24,3.24,0,0,1,.82-2,3.28,3.28,0,0,0,.81-2V6.94A4.84,4.84,0,0,0,1.22,5.3a12.53,12.53,0,0,1-1-3.67C.2.54,1.36,0,3.67,0Q8.16,0,8.16,2.86ZM76.73,65.08a50.75,50.75,0,0,1-14,13,31.86,31.86,0,0,1-16.86,4.69H42.41Q40,82.22,38.75,82a3,3,0,0,0-1.22-1h-.61a38.68,38.68,0,0,0,17-8.67A36.88,36.88,0,0,0,65.3,56.71a50.8,50.8,0,0,0,2-14.69,44.53,44.53,0,0,0-3.14-17A34.94,34.94,0,0,0,54,11.42a21.86,21.86,0,0,0-9.61-5.5A48.63,48.63,0,0,0,31.91,4.49H21.19a3,3,0,0,0-2.43,1.33,4.2,4.2,0,0,0-1,2.55v128.5A3.64,3.64,0,0,0,19.07,139a3.65,3.65,0,0,1,1.33,2.35c0,1.23-1.12,1.84-3.34,1.84a5.84,5.84,0,0,1-3.76-1.33c-1.12-.88-1.67-2.68-1.67-5.4V3.88a4.71,4.71,0,0,1,.92-2.45A2.58,2.58,0,0,1,14.69,0Q42,0,46.31.41,65.29,2.24,76.5,18q6.73,9.8,6.73,23.46A43.11,43.11,0,0,1,76.73,65.08Zm.38-24.89q0-21.82-19.58-32.85,6.12,7.56,8.57,11Q73.44,29,73.44,40.19a45.64,45.64,0,0,1-2.75,16.62A78.6,78.6,0,0,1,61.4,73Q77.12,62.23,77.11,40.19Z"/></svg>