<svg xmlns="http://www.w3.org/2000/svg" viewBox="0 0 163.02 143"><title>Asset 9</title><path d="M77.13,141.17a1.84,1.84,0,0,1-1,1,7.66,7.66,0,0,1-1-.41q-4.91-10-17.6-36.31l-17-35.91q-8.38-17.75-17.8-37.13a3,3,0,0,0-1-1.42c-.68-.55-1.22-.55-1.63,0-.55.27-1,1.09-1.23,2.45Q17.19,47.77,14.52,67t-3.88,32.7q-1.86,19-1.85,32.49v3.88a8.36,8.36,0,0,0,.61,3.27,6.27,6.27,0,0,1,.62,2.05Q10,143,5.53,143a17.42,17.42,0,0,1-3.88-.41c-1.22-.27-1.77-.61-1.63-1A39.56,39.56,0,0,1,2,137.69a22.94,22.94,0,0,0,2.34-9q2-23.08,4.7-47.61t4-39.53q1.33-15,1.33-28.71a16.29,16.29,0,0,0-2.65-5.53A57.18,57.18,0,0,1,8.39,2,1,1,0,0,1,9,.8,5.85,5.85,0,0,1,11.44.41q3.27,0,4.49,2.23,11.63,23,22.44,46,3.87,8.14,19.18,42.11Q69,115.74,76.93,133a15.83,15.83,0,0,1,1.22,5.09A5.79,5.79,0,0,1,77.13,141.17ZM151,141c0,1.35-1.22,2-3.67,2s-3.61-.54-3.88-1.63a3,3,0,0,1,.81-2.25,4,4,0,0,0,.81-2.87L134.29,26.9c-.13-1.75-.68-2.63-1.63-2.63a2.12,2.12,0,0,0-2,1.64l-23.72,51q-12.68,27.54-23.72,52.42c-.41.82-.88,1.23-1.43,1.23s-1-.41-1.43-1.23Q75,118.73,61.51,91,47.2,61.4,37.39,40.39,24.1,12,21,4.49a4.66,4.66,0,0,1-.82-2.66c0-.95.4-1.42,1.22-1.42h3.67q4.29,0,4.29,2.24V7.14q8.13,18,16.45,35.8t16.87,35.6q11.58,24.69,17.07,35.7a4.8,4.8,0,0,0,1.62.61,1.55,1.55,0,0,0,1.43-.2q6.09-11.22,13.81-29,11.38-25.91,13-29.38,12-25.5,20.73-46.92A10.26,10.26,0,0,0,131,6.32a8.51,8.51,0,0,0-.61-2.85,8.89,8.89,0,0,1-.62-2c0-.68,1-1,2.86-1h3.27c1.63,0,2.44.4,2.44,1.22q1.42,13,5.2,45.43t5.21,47.87Q151,120.6,151,141Zm12,.56Q163,143,160,143c-2.86,0-4.49-.81-4.9-2.45l-12.24-135c-.41-2.27.06-4,1.39-5.1.66-.55,1.92-.55,3.77,0a20.83,20.83,0,0,1,2.39,1,5.16,5.16,0,0,1-.61,2.74,10.52,10.52,0,0,0-.82,4.17,15.06,15.06,0,0,0,.43,3.86l11,123.86a4.2,4.2,0,0,0,.81,2.11C162.41,140,163,141.11,163,141.53Z"/></svg>