<svg xmlns="http://www.w3.org/2000/svg" viewBox="0 0 61.66 143.21"><title>F</title><path d="M8,141.37c0,1.23-1,1.84-3.06,1.84a8.46,8.46,0,0,1-4.49-1c-.68-.27-.61-.92.21-1.94a4.52,4.52,0,0,0,1.22-2.35V6.94a11.28,11.28,0,0,0-.71-2.66A10.72,10.72,0,0,1,.46,1.63C.46.54,1.56,0,3.75,0Q8,0,8,2.86ZM61.66,1.43V4.69c0,2.45-.34,3.67-1,3.67a3.31,3.31,0,0,1-2.05-.61,3.21,3.21,0,0,0-1.44-.81Q41.08,5.52,19.87,5.51c-1.38,0-2.13,1-2.27,2.85V68.1q0,4.13,3.9,4.12,5.92,0,18.54-.41t16.3-.41a4.44,4.44,0,0,0,2-.41A3.72,3.72,0,0,1,60,70.58c1.09,0,1.63,1.43,1.63,4.29S61.19,79,60.23,79a3.86,3.86,0,0,1-2-.41,3.39,3.39,0,0,0-1.84-.41q-6.36,0-20.19-.41c-9.23-.27-14.31-.4-15.27-.4q-3.28,0-3.28,3.27V133a24.29,24.29,0,0,0,.51,6.14,8.51,8.51,0,0,0,.51,1.63c0,.55-.39,1.09-1.16,1.64a5.58,5.58,0,0,1-3.28.82c-.51,0-1.09-.48-1.74-1.43a5.43,5.43,0,0,1-1-3.07V5.52a9,9,0,0,1,.82-3.68A2.89,2.89,0,0,1,15.15,0H59.62a5.74,5.74,0,0,0,1,.2Q61.66.62,61.66,1.43Z"/></svg>