<svg xmlns="http://www.w3.org/2000/svg" viewBox="0 0 74.46 148.1"><title>Asset 7</title><path d="M74.46,114.44q0,16.53-12.65,25.91a37.66,37.66,0,0,1-23.05,7.75H35.5a39.8,39.8,0,0,1-13.06-2.42Q4.08,139.2,1.43,139A11,11,0,0,1,0,132.94c0-1.35.07-2.7.2-4.05s.27-2.69.41-4c.27-.27.82-.27,1.63,0a43.07,43.07,0,0,0,14.49,13.36,38.12,38.12,0,0,0,19,4.79,31.13,31.13,0,0,0,15.71-7.14q9.18-7.74,9.18-19.17,0-12-14.08-27.34L20.4,62.83Q6.33,46.92,6.32,33.25q0-17.54,12-26.31Q27.95,0,41.62,0a30.19,30.19,0,0,1,4.89.31Q48.36.61,57,.92t9.69,2.55a11.22,11.22,0,0,1,1,4.69,10.84,10.84,0,0,1-1,4.9q-1-.62-7.14-3.88a42.4,42.4,0,0,0-3.88-2A28.35,28.35,0,0,0,44.06,4.69,25.19,25.19,0,0,0,30.8,8.26,25.25,25.25,0,0,0,22,16.52a24.44,24.44,0,0,0-3.47,13.26q0,10.62,14.49,24.69Q46.31,67.52,59.77,80.38,74.46,97.32,74.46,114.44Zm-5.3.82q0-16.11-14.08-31.82Q41.82,71,28.76,58.55,14.48,44.06,14.48,31.21a38.41,38.41,0,0,1,1-9.59C16.59,18.5,17.41,16,18,14.08a14.42,14.42,0,0,0-5.81,7.44A35.35,35.35,0,0,0,10.4,33.46q0,11.63,14.28,26.31Q37.94,72.84,51.2,85.68,65.69,102,65.69,116.89a24,24,0,0,1-1.94,9.18A68.24,68.24,0,0,1,59,135.46q3.47-1.23,6.32-5.72A26.51,26.51,0,0,0,69.16,115.26Z"/></svg>