<svg xmlns="http://www.w3.org/2000/svg" viewBox="0 0 19.99 143.21"><title>Asset 8</title><path d="M8.36,141.38q0,1.83-3.06,1.83a8.9,8.9,0,0,1-4.69-1c-.54-.27-.41-.88.41-1.83a4.21,4.21,0,0,0,1.22-2.65V7.13A17.12,17.12,0,0,0,1.12,4.69,9.49,9.49,0,0,1,0,1.83C0,.61,1.22,0,3.67,0q4.7,0,4.69,2.85ZM20,1.63a7.3,7.3,0,0,1-1.12,3.06,9.09,9.09,0,0,0-1.12,2.44V137.71a4.68,4.68,0,0,0,1.12,2.55c.75,1,.85,1.66.31,1.93a8.53,8.53,0,0,1-4.57,1c-2,0-3-.61-3-1.83V2.85Q11.63,0,16.41,0C18.8,0,20,.54,20,1.63Z"/></svg>