<svg xmlns="http://www.w3.org/2000/svg" viewBox="0 0 116.28 145.86"><title>Asset 4</title><path d="M8,141.17c0,.81-.58,1.36-1.74,1.63a13.11,13.11,0,0,1-2.34.41c-2.59,0-3.88-.54-3.88-1.63a3.91,3.91,0,0,1,.61-2,4,4,0,0,0,.82-2V6.94A4.84,4.84,0,0,0,1,5.3,12.53,12.53,0,0,1,0,1.63C0,.54,1.15,0,3.47,0Q8,0,8,2.86Zm108.32,4.69h-5.71a47.74,47.74,0,0,1-21.22-5.1Q81,136.68,70.79,127.91q-4.7-4.08-16.93-16.12A383.08,383.08,0,0,1,29.78,80.38a12.89,12.89,0,0,0-6.12-1.64H21.22c-2.32.28-3.47,1.43-3.47,3.47v54.45a4,4,0,0,0,.81,2.05,5.38,5.38,0,0,1,.82,3.07c0,.13-.27.34-.82.61a10.35,10.35,0,0,1-3.67.61c-2.45,0-3.67-.47-3.67-1.42V3.67a3.3,3.3,0,0,1,1.63-2.45A5.47,5.47,0,0,1,16.12,0Q35.7,0,44.88,2.66A44.61,44.61,0,0,1,72.22,24.34q3.25,5.94,3.26,14.73,0,9.63-3.57,16.17a40.28,40.28,0,0,1-8.67,11,50.72,50.72,0,0,1-11.42,7.57,4.47,4.47,0,0,0-1.64,3.48,5.23,5.23,0,0,0,1.23,3.07,232,232,0,0,0,28.35,36.41Q98.12,136,116.28,145Zm-59.16-97a33.3,33.3,0,0,0,1-8.8A35.62,35.62,0,0,0,56.41,29a32.53,32.53,0,0,0-5.21-9.83Q45.5,11.65,39.68,9.09T22.44,6.53q-4.7,0-4.69,4.07V69.77a4,4,0,0,0,1.63,3.06q5.91,0,9.38-.31a25.55,25.55,0,0,0,7.14-1.74Q43,69.15,49,62.6A37.24,37.24,0,0,0,57.12,48.89ZM72.22,120q-12-16-23.87-32.06Q46.1,84.44,43.86,81c-.41,0-1.16-.48-2.24-1.43-.69-.82-1.64-.61-2.86.61v2q9.18,13,15.1,19.89A125,125,0,0,0,72.22,120ZM64.87,55.9q4.29-6.74,4.29-16.32a31.87,31.87,0,0,0-4.29-16.73,39.85,39.85,0,0,0-5.51-7.55Q57.93,13.67,51,9.18a14,14,0,0,0-2.45-.61,3.73,3.73,0,0,0,.21,1.22A47.27,47.27,0,0,1,60.69,23.87,35.48,35.48,0,0,1,64.87,41a39.36,39.36,0,0,1-4.49,14.08,105.12,105.12,0,0,1-8.56,12.65Q55.9,66.31,60.59,61,63.65,57.33,64.87,55.9Z"/></svg>