<svg xmlns="http://www.w3.org/2000/svg" viewBox="0 0 108.32 142.83"><title>Asset 13</title><path d="M92.82,138.31a5.62,5.62,0,0,1,1,2.86c0,1.09-1.36,1.63-4.08,1.63H86.9c-2.58,0-3.81-.61-3.67-1.84.54-2.46.75-3.82.61-4.09q-3.47-6.35-11.22-20.47Q62.42,97.77,53.45,83,51.61,80,50.39,80c-1,0-2,1-3.27,3.07q-18.36,29.67-20.29,32.85T14.08,135.64c-.55.68-.55,1.74,0,3.17a10.34,10.34,0,0,1,.81,3c0,.82-.81,1.15-2.45,1H3.06c-2,0-3.06-.47-3.06-1.43,0-.54.41-1.15,1.22-1.84a42,42,0,0,0,3.88-3.27c1.63-1.77,2.86-3.06,3.67-3.88q8.37-13.89,17.75-29t18.77-30a7.92,7.92,0,0,0,1-2.86,6.6,6.6,0,0,0-.41-1.84Q37.13,52.52,28.56,36.36,19,19,10.2,4.29C8.7,2.79,8,1.64,8,.82A6.79,6.79,0,0,1,11.42,0Q16.52,0,18,3.27,30.4,26.15,43,49,61,81.71,67.52,93.36,75.68,108.08,92.82,138.31Zm15.5,2.86c0,.54-.47,1-1.42,1.22a11.59,11.59,0,0,1-3.47.41q-3.89,0-4.9-1.63L72.62,95.06Q56.91,67.12,47.33,49.78,24.07,8,22,4.08V1.22A11,11,0,0,1,27.34,0,9.74,9.74,0,0,1,32,1.22a17,17,0,0,0-.61,4.49,4.68,4.68,0,0,0,1.22,3.47q4.48,7.35,8.16,14.28,13.26,25.09,13.46,25.3c1,1.63,2.11,2.44,3.47,2.44A2.92,2.92,0,0,0,60,50q7.13-10.41,14.28-21.62Q78.94,21,88.13,5.92a3,3,0,0,0,.41-2.25c-.14-.68-.28-1.43-.41-2.24S88.94,0,90.58,0h8.56a11.53,11.53,0,0,0,1,1.63,17.59,17.59,0,0,0-3.87,3.88C95.2,7,94.18,8.43,93.23,9.79Q79.57,31,77.93,33.66q-8.57,13.67-15.1,24.48a3.53,3.53,0,0,0-.61,2.45,11.06,11.06,0,0,0,.41,2.65l39.78,72a13.72,13.72,0,0,0,3.36,3.47C107.47,140.08,108.32,140.9,108.32,141.17Z"/></svg>