<svg xmlns="http://www.w3.org/2000/svg" viewBox="0 0 155.65 148.51"><title>O</title><path d="M155.65,74.36q0,30.36-23.36,52.25t-54.57,21.9q-31.2,0-54.46-21.79T0,74.36Q0,43.81,23.26,21.9T77.72,0q31,0,54.47,22T155.65,74.36ZM29,126.07q-9.79-13-14.08-24.89T10.61,73.85A72.52,72.52,0,0,1,16.12,46.1q.6-1.43,7.34-15.91a68.65,68.65,0,0,0-12.75,20A63.62,63.62,0,0,0,6.53,74.05q0,16.53,5.1,28.56T29,126.07ZM139.54,74.15Q139.54,45,123,25.88q-17.37-20-45.15-20t-45.16,20Q16.11,45,16.12,74.36t17.06,48.78Q50.24,142.6,78.23,142.6q27.8,0,45-20Q139.54,103.49,139.54,74.15Zm10-.1q0-13.86-3.87-23.87t-12.86-20q5.72,12.24,7.14,15.71a72.83,72.83,0,0,1,5.72,27.95q0,15.91-4,27.13T127.5,126.07q11.92-11.41,17-23.36T149.53,74.05Z"/></svg>