<svg xmlns="http://www.w3.org/2000/svg" viewBox="0 0 127.37 147.75"><title>Asset 6</title><path d="M112.27,144.68a2,2,0,0,1-.2,2.25,2.77,2.77,0,0,1-2,.82h-3.68a3.42,3.42,0,0,1-3.06-1.23,11,11,0,0,0,.62-3.48,19.31,19.31,0,0,0-2.25-8q-3.25-7-3.47-7.58Q91.88,113.15,85.55,98.8a6.56,6.56,0,0,0-3.17-3.07,10.71,10.71,0,0,0-4.18-.82H33.12q-1.23,0-3.27,4.11c-1.9,4-3.19,6.51-3.87,7.61q-7.35,17.9-14.49,35.57a6.12,6.12,0,0,0,.41,2.88,3.79,3.79,0,0,1,.21,2.67H.07c-.27-1.09.24-2.11,1.53-3.07A4.75,4.75,0,0,0,3.74,142q6.53-15.74,15.91-37.39,8.37-19,16.83-38.41t15.61-37a14.22,14.22,0,0,0,.61-3.48,6.69,6.69,0,0,0-1.53-3.57A20.24,20.24,0,0,1,49,18.62c-.41-.81-.2-2,.61-3.47s1.56-2.25,2.25-2.25q1.83,0,4.89,6.74,1.23,2.87,2.65,5.73,8.77,20,17.75,39.94t17.95,39.74Q104.93,127.12,112.27,144.68ZM79.63,84.91,62.29,46.32a29.71,29.71,0,0,0-3.16-6.23c-.89-1.16-1.67-1.74-2.35-1.74-.68.41-1.15.68-1.43.82L35.57,84.3a4,4,0,0,0,0,3.06A2.24,2.24,0,0,0,37.81,89H77.18c.68,0,1.36-.52,2-1.54S80,85.59,79.63,84.91Zm47.74,62.22a11,11,0,0,1-3.88.62,12.75,12.75,0,0,1-4.08-.62,1.81,1.81,0,0,1-1.22-1.22,13.52,13.52,0,0,0-.62-1.83Q110,127.13,98,100.2,88.2,78,78.41,55.71q-8-18-19.79-43.67A14.6,14.6,0,0,1,57.39,8,27.63,27.63,0,0,1,57,3.47C57,1.16,57.32,0,58,0c1,0,2.1,1.64,3.46,4.9Q74.54,35.1,90.85,71L121,137.14a36.82,36.82,0,0,0,3.47,4.79C126.41,144.31,127.37,146.05,127.37,147.13Z"/></svg>