<svg xmlns="http://www.w3.org/2000/svg" viewBox="0 0 67.12 143.21"><title>Asset 12</title><path d="M8.16,141.37c0,1.23-1,1.84-3.14,1.84a8.83,8.83,0,0,1-4.61-1c-.55-.27-.41-.88.41-1.84A4.11,4.11,0,0,0,2,137.9V6.94A6.89,6.89,0,0,0,1,4.49,6.61,6.61,0,0,1,0,1.63C0,.54,1.19,0,3.56,0c3.06,0,4.6,1,4.6,2.86Zm57.94-5.3c.67,0,1,.48,1,1.43a6.83,6.83,0,0,1-.41,2,4.77,4.77,0,0,1-.82,1.83l-3.06,1.84H15.71A3.67,3.67,0,0,1,13,141.57a4.85,4.85,0,0,1-1.32-2.86V5.51a8.85,8.85,0,0,1,.81-3.78A3.06,3.06,0,0,1,15.49,0H59.78a5.54,5.54,0,0,0,1,.2q1,.42,1,1.23c0,1.5,0,3-.1,4.59s-.45,2.34-1.13,2.34a3.33,3.33,0,0,1-2-.61,3.15,3.15,0,0,0-1.43-.81q-16-1.42-36.89-1.43a2.2,2.2,0,0,0-2.46,1.64v61a4,4,0,0,0,1.12,3,3.73,3.73,0,0,0,2.75,1.13q5.93,0,18.57-.41T56.3,71.4a4.41,4.41,0,0,0,2-.41,4.11,4.11,0,0,1,1.84-.41c1,0,1.43,1.36,1.43,4.08S61.13,79,60.18,79a3.37,3.37,0,0,1-1.84-.41,3.82,3.82,0,0,0-2-.41q-6.31,0-20.09-.41t-15-.4c-2.32,0-3.47,1.09-3.47,3.26V132.8A4.75,4.75,0,0,0,18.87,136a3.14,3.14,0,0,0,2.35,1.32q8,0,17.34-.35Q62.22,136.07,66.1,136.07Z"/></svg>