<svg xmlns="http://www.w3.org/2000/svg" viewBox="0 0 66.91 143.21"><title>Asset 11</title><path d="M7.75,141.17c0,.81-.56,1.36-1.69,1.63a12.46,12.46,0,0,1-2.28.41c-2.52,0-3.78-.54-3.78-1.63a3.24,3.24,0,0,1,.82-2,3.28,3.28,0,0,0,.81-2V6.94A8,8,0,0,0,.82,4.49,7.67,7.67,0,0,1,0,1.63C0,.54,1.12,0,3.38,0Q7.75,0,7.75,2.86Zm58.35-5.1.81,2a5.89,5.89,0,0,1-1.22,3.26l-3.06,1.84H15.71a4.16,4.16,0,0,1-3-1.74,4.93,4.93,0,0,1-1.53-2.76V3.07A2.5,2.5,0,0,1,13,.82,8.71,8.71,0,0,1,16.73,0c2,0,3.06.54,3.06,1.64A9.53,9.53,0,0,1,19,4.9a9.14,9.14,0,0,1-1,1.84V132.8q0,4.48,3.06,4.49,6.33,0,22.34-.61T66.1,136.07Z"/></svg>